Coordinates																	
version=1																	
nRows=33																	
nColumns=18																	
inDegrees=yes																	
																	
"Units are S.I. units (second, meters, Newtons, ...)"																	
"If the header above contains a line with 'inDegrees', this indicates whether rotational values are in degrees (yes) or radians (no)."																	
																	
endheader																	
time	/jointset/hip_l/hip_flexion_l/value	/jointset/hip_l/hip_adduction_l/value	/jointset/hip_l/hip_rotation_l/value	/jointset/hip_r/hip_flexion_r/value	/jointset/hip_r/hip_adduction_r/value	/jointset/hip_r/hip_rotation_r/value	/jointset/knee_l/knee_angle_l/value	/jointset/knee_r/knee_angle_r/value	/jointset/ankle_l/ankle_angle_l/value	/jointset/ankle_r/ankle_angle_r/value	/jointset/subtalar_l/subtalar_angle_l/value	/jointset/subtalar_r/subtalar_angle_r/value	/jointset/mtp_l/mtp_angle_l/value	/jointset/mtp_r/mtp_angle_r/value	/jointset/back/lumbar_extension/value	/jointset/back/lumbar_bending/value	/jointset/back/lumbar_rotation/value
37.51	45.87870625	11.47299587	14.13111094	45.87870625	11.47299587	14.13111094	-38.3538959	-38.3538959	5.39539685	5.39539685	-24.20934048	-24.20934048	3.81931336	3.81931336	-29.60598541	40.96086639	27.4878699
37.52	59.33632443	10.75382594	3.18248446	59.33632443	10.75382594	3.18248446	-61.1702562	-61.1702562	-48.06366332	-48.06366332	-32.39526306	-32.39526306	42.46162819	42.46162819	12.16340279	31.7792953	-42.20026519
37.53	29.33069773	2.77593336	13.37306239	29.33069773	2.77593336	13.37306239	-113.0780697	-113.0780697	-25.4511845	-25.4511845	-31.89672047	-31.89672047	2.05878239	2.05878239	-37.62282756	-9.15700396	-3.70378906
37.54	51.27310163	13.53635913	-6.00646357	51.27310163	13.53635913	-6.00646357	6.10195795	6.10195795	30.4754263	30.4754263	-3.28476506	-3.28476506	17.5942694	17.5942694	4.70626069	-41.09048511	-14.69290892
37.55	12.63819348	4.05061385	-6.63720693	12.63819348	4.05061385	-6.63720693	-116.6522558	-116.6522558	-18.2768466	-18.2768466	7.67685754	7.67685754	3.85058068	3.85058068	-44.0907696	-9.92622352	19.22271494
37.56	4.68705562	-15.20649001	13.09901294	4.68705562	-15.20649001	13.09901294	-119.9807147	-119.9807147	39.91350167	39.91350167	-25.00600717	-25.00600717	57.53357302	57.53357302	-12.2197615	-43.51735821	12.0642664
37.57	60.56486937	8.10982367	-4.98781577	60.56486937	8.10982367	-4.98781577	-113.668215	-113.668215	-25.90667933	-25.90667933	33.83753939	33.83753939	23.55528651	23.55528651	14.63741814	-30.56069757	-6.77393363
37.58	42.33404732	2.35576518	-12.06428327	42.33404732	2.35576518	-12.06428327	-65.61170528	-65.61170528	27.88610833	27.88610833	-25.17599514	-25.17599514	12.11001458	12.11001458	18.0167467	-40.88338917	-15.18723457
37.59	-2.01625329	-14.96273361	7.41124856	-2.01625329	-14.96273361	7.41124856	-16.5763662	-16.5763662	-26.14462675	-26.14462675	21.71533329	21.71533329	20.61556705	20.61556705	29.74979023	-16.23938823	-17.4277055
37.6	-16.280214	-18.07228139	2.12429994	-16.280214	-18.07228139	2.12429994	-102.2563028	-102.2563028	19.54918353	19.54918353	26.67536567	26.67536567	40.18624896	40.18624896	12.60029941	32.72626286	-20.82916067
37.61	53.5089726	-17.22061745	4.41426696	53.5089726	-17.22061745	4.41426696	-50.68156335	-50.68156335	-28.45674433	-28.45674433	-14.72946928	-14.72946928	10.72935388	10.72935388	-10.89356832	30.75879573	-36.86139716
37.62	-13.11668083	1.05332144	27.66944173	-13.11668083	1.05332144	27.66944173	-5.661742	-5.661742	-28.55672392	-28.55672392	27.35755206	27.35755206	34.41380511	34.41380511	11.85816741	29.78303571	13.88502214
37.63	12.42608103	2.55235897	-12.65822149	12.42608103	2.55235897	-12.65822149	-15.5716208	-15.5716208	-48.91926941	-48.91926941	17.98153152	17.98153152	4.15493236	4.15493236	29.05416679	16.34765444	10.91825789
37.64	17.331956	-19.02139072	21.31430012	17.331956	-19.02139072	21.31430012	-75.32712455	-75.32712455	-37.58290535	-37.58290535	-29.06579364	-29.06579364	14.12887371	14.12887371	29.6295787	-3.2197163	-21.53844316
37.65	57.04752361	1.76857789	-19.97617993	57.04752361	1.76857789	-19.97617993	-110.7489958	-110.7489958	-42.05891474	-42.05891474	-31.48829103	-31.48829103	35.70006208	35.70006208	39.78011062	-10.59565683	-20.96811044
37.66	7.26776329	6.26428911	17.41071373	7.26776329	6.26428911	17.41071373	-27.39406545	-27.39406545	12.5922379	12.5922379	-33.15446398	-33.15446398	12.2107071	12.2107071	-41.47121731	13.86620794	-40.83526744
37.67	18.04782365	2.96263286	-15.65660474	18.04782365	2.96263286	-15.65660474	-44.72037019	-44.72037019	3.17031762	3.17031762	15.02285583	15.02285583	17.49322043	17.49322043	-34.30980561	-3.03006414	5.07796296
37.68	58.62107973	19.8892241	4.42885141	58.62107973	19.8892241	4.42885141	-82.37977134	-82.37977134	49.46451758	49.46451758	29.3101005	29.3101005	47.23870937	47.23870937	-23.02892556	-24.75578184	-1.4198324
37.69	33.33733553	19.80691065	16.68762474	33.33733553	19.80691065	16.68762474	-9.55502552	-9.55502552	11.01977082	11.01977082	19.23939748	19.23939748	1.66053234	1.66053234	-20.86414223	0.23901932	1.80593915
37.7	-8.14084549	-5.30943013	-13.13394696	-8.14084549	-5.30943013	-13.13394696	-48.92505221	-48.92505221	-49.73327774	-49.73327774	2.33247733	2.33247733	43.06745638	43.06745638	4.29718025	-2.93194213	-34.90600531
37.71	-26.94403753	-5.33787077	3.81449287	-26.94403753	-5.33787077	3.81449287	-14.61065285	-14.61065285	-17.710752	-17.710752	-5.18041463	-5.18041463	49.71079983	49.71079983	-30.54819751	15.7946596	11.69930745
37.72	42.28786762	18.57002911	18.67104871	42.28786762	18.57002911	18.67104871	-28.84054858	-28.84054858	28.66008837	28.66008837	-26.31217482	-26.31217482	53.71651754	53.71651754	-27.40565325	5.46601196	-21.201868
37.73	-5.88940019	-2.25685218	15.10928831	-5.88940019	-2.25685218	15.10928831	-108.4234904	-108.4234904	-34.1578106	-34.1578106	19.00719273	19.00719273	37.24186635	37.24186635	32.27232071	23.69564138	24.80712757
37.74	42.16437969	9.90430294	28.49268152	42.16437969	9.90430294	28.49268152	-110.4214922	-110.4214922	-43.95164735	-43.95164735	14.52421185	14.52421185	33.97487216	33.97487216	-32.66271531	-4.21814276	8.37792016
37.75	56.72378835	-11.63308114	20.56506122	56.72378835	-11.63308114	20.56506122	-98.57957413	-98.57957413	48.62053917	48.62053917	18.19719177	18.19719177	47.50325998	47.50325998	19.86865587	39.10296263	-2.7176772
37.76	16.20212204	-16.21099301	2.24149661	16.20212204	-16.21099301	2.24149661	-66.86671324	-66.86671324	-25.18534074	-25.18534074	-10.84558688	-10.84558688	43.87715224	43.87715224	-6.71755784	8.99218629	-27.60468257
37.77	43.0549858	-15.15648325	-17.0609446	43.0549858	-15.15648325	-17.0609446	-112.4971748	-112.4971748	36.53109178	36.53109178	11.7193456	11.7193456	20.85487659	20.85487659	10.98112784	25.91738491	31.22257482
37.78	63.8826126	-17.40049485	-18.72179136	63.8826126	-17.40049485	-18.72179136	-112.5074457	-112.5074457	-29.2629627	-29.2629627	33.31463847	33.31463847	56.13522659	56.13522659	-42.43151073	-10.40796425	-5.9575558
37.79	-20.38119624	6.49434334	-7.95812418	-20.38119624	6.49434334	-7.95812418	-95.62061149	-95.62061149	29.70248053	29.70248053	-18.17755521	-18.17755521	16.70498805	16.70498805	43.21749549	-8.79208996	-27.77162737
37.8	-18.01937892	-18.50602656	-14.88193442	-18.01937892	-18.50602656	-14.88193442	-100.727964	-100.727964	31.9979529	31.9979529	-31.46312969	-31.46312969	22.19960122	22.19960122	12.84780907	0.15394858	-6.86013714
37.81	68.11544433	17.1478542	11.04861397	68.11544433	17.1478542	11.04861397	-33.00392482	-33.00392482	24.57202523	24.57202523	-26.60113755	-26.60113755	12.53559929	12.53559929	8.53216469	-12.62494506	-15.36956302
37.82	67.54376562	1.56488504	-11.01701778	67.54376562	1.56488504	-11.01701778	-70.58226054	-70.58226054	-21.21573521	-21.21573521	-31.86505902	-31.86505902	-6.93974549	-6.93974549	27.27335889	29.69570948	22.55865342
37.83	-22.2631631	-10.67335123	-7.1138609	-22.2631631	-10.67335123	-7.1138609	-55.21974585	-55.21974585	-19.42924292	-19.42924292	-3.43818317	-3.43818317	11.79285624	11.79285624	42.61334846	-31.32861781	31.74874375
